<?xml version="1.0" encoding="utf-8"?>
<!-- Generator: Adobe Illustrator 21.0.0, SVG Export Plug-In . SVG Version: 6.00 Build 0)  -->
<svg version="1.1" id="Layer_1" xmlns="http://www.w3.org/2000/svg" xmlns:xlink="http://www.w3.org/1999/xlink" x="0px" y="0px"
	 viewBox="0 0 781.4 167.8" style="enable-background:new 0 0 781.4 167.8;" xml:space="preserve">
<style type="text/css">
	.st0{fill:none;}
	.st1{fill:#58595B;}
	.st2{fill:#D1202A;}
	.st3{fill:#F37121;}
</style>
<g>
	<path d="M762.6,69.7c-8,0-14.5-6.5-14.5-14.5c0-8,6.5-14.5,14.5-14.5c8,0,14.5,6.5,14.5,14.5C777.1,63.2,770.6,69.7,762.6,69.7
		 M762.6,43.7c-6.4,0-11.5,5.2-11.5,11.5c0,6.4,5.1,11.5,11.5,11.5c6.4,0,11.5-5.1,11.5-11.5C774.2,48.8,769,43.7,762.6,43.7"/>
	<path d="M770,62.5L770,62.5c-1.4,0-2.7,0-4.1,0c-0.1,0-0.1,0-0.1-0.1c-0.6-1.3-1.2-2.5-1.8-3.8c-0.2-0.4-0.4-0.8-0.7-1.2
		c-0.4-0.4-0.8-0.6-1.3-0.7c-0.5-0.1-1.1,0-1.6,0c0,0,0,0,0,0v5.7h-3.9V47.3c0,0,0,0,0.1,0c2,0,4,0,6,0c0.7,0,1.4,0,2.1,0.2
		c0.6,0.1,1.2,0.3,1.7,0.6c0.8,0.4,1.4,1.1,1.6,2c0.2,0.9,0.3,1.8,0,2.7c-0.3,1-0.9,1.7-1.8,2.2c-0.3,0.1-0.6,0.2-0.9,0.4
		c0,0,0,0-0.1,0c0.2,0.1,0.4,0.1,0.6,0.2c0.5,0.2,0.9,0.6,1.2,1c0.4,0.5,0.7,1.1,1,1.6C768.6,59.6,769.3,61,770,62.5
		C769.9,62.4,769.9,62.4,770,62.5 M760.2,54C760.2,54,760.3,54,760.2,54c0.6,0,1.1,0,1.6,0c0.4,0,0.8,0,1.1-0.1
		c0.5-0.2,0.9-0.5,1.1-1c0.1-0.5,0.1-1,0-1.5c-0.1-0.5-0.5-0.9-1-1c-0.4-0.1-0.7-0.2-1.1-0.2c-0.6,0-1.1,0-1.7,0c0,0,0,0-0.1,0V54z"
		/>
	<rect x="747.7" y="40.6" class="st0" width="29.9" height="29.2"/>
	<g>
		<path class="st1" d="M205.7,106.4c0.1,11.3,6,25,20.9,25c11.3,0,17.5-6.6,19.9-16.2h7.7c-3.3,14.4-11.7,22.8-27.7,22.8
			c-20.2,0-28.6-15.5-28.6-33.6c0-16.7,8.5-33.6,28.6-33.6c20.4,0,28.5,17.8,27.9,35.7H205.7z M246.8,99.9
			c-0.4-11.7-7.6-22.6-20.2-22.6c-12.7,0-19.7,11.1-20.9,22.6H246.8z"/>
		<path class="st1" d="M258.9,72.6h8.6l19.9,55.7h0.2l19.7-55.7h8l-23.7,63.5h-8.2L258.9,72.6z"/>
		<path class="st1" d="M324.8,106.4c0.1,11.3,6,25,20.9,25c11.3,0,17.5-6.6,19.9-16.2h7.7c-3.3,14.4-11.7,22.8-27.7,22.8
			c-20.2,0-28.7-15.5-28.7-33.6c0-16.7,8.5-33.6,28.7-33.6c20.4,0,28.5,17.8,27.9,35.7H324.8z M365.9,99.9
			c-0.4-11.7-7.6-22.6-20.2-22.6c-12.7,0-19.7,11.1-20.9,22.6H365.9z"/>
		<path class="st1" d="M383.9,72.6h7.1v14.9h0.2c3.9-10.2,12.5-16.2,24-15.7v7.8c-14-0.7-23.6,9.6-23.6,22.7v33.8h-7.7V72.6z"/>
	</g>
	<g>
		<path class="st2" d="M424.8,48.3h10.5v32.8h0.2c3.4-7,11.6-10.1,20.3-10.1c19.5,0,29.3,15.5,29.3,33.4c0,18-9.6,33.1-29,33.1
			c-6.5,0-15.9-2.5-20.5-10h-0.2v8.5h-10.5V48.3z M454.3,80.2c-14,0-19.4,12-19.4,24c0,12.5,5.6,24.1,20,24.1
			c14.3,0,19.1-12.2,19.1-24.6C473.9,91.8,467.8,80.2,454.3,80.2z"/>
		<path class="st2" d="M493.7,72.5h9.8v13.4h0.3c5-10.2,12-15.2,23.4-14.9v11.1c-16.8,0-23,9.6-23,25.7v28.3h-10.5V72.5z"/>
		<path class="st2" d="M547.8,61h-10.4V48.3h10.4V61z M537.4,72.5h10.4v63.6h-10.4V72.5z"/>
		<path class="st2" d="M616.5,136.1h-10.5v-8.6h-0.2c-3.4,7-11.6,10.1-20.3,10.1c-19.6,0-29.3-15.5-29.3-33.5c0-18,9.6-33.1,29-33.1
			c6.5,0,15.9,2.5,20.5,10h0.2V48.3h10.5V136.1z M587,128.3c14,0,19.4-12.1,19.4-24c0-12.6-5.7-24.1-20-24.1
			c-14.3,0-19.1,12.2-19.1,24.6C567.4,116.7,573.5,128.3,587,128.3z"/>
		<path class="st2" d="M683.3,130.6c0,20.7-9.5,31.2-29.5,31.2c-11.9,0-25.7-4.8-26.3-18.7h10.5c0.5,7.6,9.6,10.3,16.5,10.3
			c13.7,0,19.1-9.8,19.1-24.1v-4.2h-0.2c-3.4,7.7-11.8,11.6-19.8,11.6c-18.9,0-28.4-14.9-28.4-32.2c0-15,7.4-33.6,29.4-33.6
			c8,0,15.1,3.6,18.9,10.6h0.1v-9.1h9.8V130.6z M672.9,103c0-11.2-4.9-22.8-18.1-22.8c-13.4,0-18.8,10.9-18.8,23.1
			c0,11.4,4.2,24.2,18,24.2C667.8,127.6,672.9,114.9,672.9,103z"/>
		<path class="st2" d="M749,115.9c-2.8,14-12.9,21.6-27.2,21.6c-20.3,0-29.9-14-30.5-33.5c0-19.1,12.5-33.1,29.9-33.1
			c22.5,0,29.4,21,28.8,36.4h-47.6c-0.4,11.1,5.9,20.9,19.8,20.9c8.6,0,14.6-4.2,16.5-12.4H749z M738.9,98.2c-0.5-10-8-18-18.3-18
			c-10.9,0-17.5,8.2-18.2,18H738.9z"/>
	</g>
	<g>
		<path class="st3" d="M190.4,134v-8c-63.3-6.8-112.5-58.1-113-120h-8C69.8,72.2,122.6,127.2,190.4,134z"/>
		<path class="st3" d="M77.4,5.9h-8C69,24.4,61.3,41.8,47.5,55.1C35.6,66.6,20.4,73.9,3.8,76.3v8.1c18.7-2.4,35.9-10.5,49.2-23.4
			C68.5,46.1,77,26.6,77.4,5.9z"/>
		<path class="st2" d="M99.5,5.9h-8c-0.3,25.8-10.9,50-30.1,68.5C45.6,89.6,25.6,99.5,3.8,103.1v8.1c23.9-3.7,45.9-14.4,63.1-31
			C87.7,60.2,99.2,33.9,99.5,5.9z"/>
		<path class="st2" d="M126,78.8c17.6,15.9,40,26.1,64.3,29.5v-8.1c-22.4-3.3-42.9-12.8-59-27.4c-19.6-17.8-30.5-41.5-30.8-67h-8
			C92.9,33.6,104.7,59.4,126,78.8z"/>
		<path class="st1" d="M190.4,82.6v-8.1c-16.7-2.1-32.1-9.2-44-20.7C133,40.8,125.5,23.9,125.1,5.9h-8c0.4,20.2,8.7,39.1,23.7,53.6
			C154.2,72.4,171.6,80.4,190.4,82.6z"/>
		<path class="st1" d="M123.4,5.9h-8c-0.2,32-12.7,62.1-35.3,85C59.7,111.5,33,124.3,3.8,127.5v8.1c31.3-3.3,60-16.9,81.9-39
			C109.9,72.1,123.2,40,123.4,5.9z"/>
	</g>
</g>
</svg>
